<svg width="22" height="23" viewBox="0 0 22 23" fill="none" xmlns="http://www.w3.org/2000/svg">
<path d="M21.5002 1.01667C20.8502 0.366668 19.8002 0.366668 19.1502 1.01667L11.0002 9.15L2.8502 1C2.2002 0.350001 1.1502 0.350001 0.500195 1C-0.149805 1.65 -0.149805 2.7 0.500195 3.35L8.6502 11.5L0.500195 19.65C-0.149805 20.3 -0.149805 21.35 0.500195 22C1.1502 22.65 2.2002 22.65 2.8502 22L11.0002 13.85L19.1502 22C19.8002 22.65 20.8502 22.65 21.5002 22C22.1502 21.35 22.1502 20.3 21.5002 19.65L13.3502 11.5L21.5002 3.35C22.1335 2.71667 22.1335 1.65 21.5002 1.01667Z" fill="#716E6D"/>
</svg>
