<svg width="24" height="25" viewBox="0 0 24 25" fill="none" xmlns="http://www.w3.org/2000/svg">
<path d="M6.66667 0.333313C2.98533 0.333313 0 3.31865 0 6.99998V17.6666C0 21.348 2.98533 24.3333 6.66667 24.3333H17.3333C21.0147 24.3333 24 21.348 24 17.6666V6.99998C24 3.31865 21.0147 0.333313 17.3333 0.333313H6.66667ZM20 2.99998C20.736 2.99998 21.3333 3.59731 21.3333 4.33331C21.3333 5.06931 20.736 5.66665 20 5.66665C19.264 5.66665 18.6667 5.06931 18.6667 4.33331C18.6667 3.59731 19.264 2.99998 20 2.99998ZM12 5.66665C15.6813 5.66665 18.6667 8.65198 18.6667 12.3333C18.6667 16.0146 15.6813 19 12 19C8.31867 19 5.33333 16.0146 5.33333 12.3333C5.33333 8.65198 8.31867 5.66665 12 5.66665ZM12 8.33331C10.9391 8.33331 9.92172 8.75474 9.17157 9.50489C8.42143 10.255 8 11.2724 8 12.3333C8 13.3942 8.42143 14.4116 9.17157 15.1617C9.92172 15.9119 10.9391 16.3333 12 16.3333C13.0609 16.3333 14.0783 15.9119 14.8284 15.1617C15.5786 14.4116 16 13.3942 16 12.3333C16 11.2724 15.5786 10.255 14.8284 9.50489C14.0783 8.75474 13.0609 8.33331 12 8.33331Z" fill="#A39E9D"/>
</svg>
